<mxfile host="app.diagrams.net" modified="2021-06-18T10:51:06.202Z" agent="5.0 (Windows NT 10.0; Win64; x64) AppleWebKit/537.36 (KHTML, like Gecko) Chrome/91.0.4472.106 Safari/537.36" etag="uQUnbl73WveUBJ7IuArq" version="14.8.0" type="github">
  <diagram id="ISYvh4CUFm-395WLnggt" name="Page-1">
    <mxGraphModel dx="1422" dy="730" grid="1" gridSize="10" guides="1" tooltips="1" connect="1" arrows="1" fold="1" page="1" pageScale="1" pageWidth="827" pageHeight="1169" math="0" shadow="0">
      <root>
        <mxCell id="0" />
        <mxCell id="1" parent="0" />
        <mxCell id="sqNoF_5NScqEgGkXhuoa-2" value="" style="rounded=0;whiteSpace=wrap;html=1;fillColor=#dae8fc;strokeColor=#6c8ebf;rotation=90;" parent="1" vertex="1">
          <mxGeometry x="155" y="160" width="50" height="100" as="geometry" />
        </mxCell>
        <mxCell id="sqNoF_5NScqEgGkXhuoa-3" value="" style="endArrow=classic;html=1;" parent="1" edge="1">
          <mxGeometry width="50" height="50" relative="1" as="geometry">
            <mxPoint x="150" y="210" as="sourcePoint" />
            <mxPoint x="180" y="210" as="targetPoint" />
            <Array as="points">
              <mxPoint x="165" y="210" />
            </Array>
          </mxGeometry>
        </mxCell>
        <mxCell id="sqNoF_5NScqEgGkXhuoa-4" value="" style="rounded=0;whiteSpace=wrap;html=1;fillColor=#d5e8d4;strokeColor=#82b366;rotation=-62;" parent="1" vertex="1">
          <mxGeometry x="260" y="120" width="50" height="100" as="geometry" />
        </mxCell>
        <mxCell id="sqNoF_5NScqEgGkXhuoa-6" value="Platoon" style="text;html=1;strokeColor=#6c8ebf;fillColor=#dae8fc;align=center;verticalAlign=middle;whiteSpace=wrap;rounded=0;" parent="1" vertex="1">
          <mxGeometry x="620" y="240" width="80" height="20" as="geometry" />
        </mxCell>
        <mxCell id="sqNoF_5NScqEgGkXhuoa-7" value="VeÃ­culo Livre" style="text;html=1;strokeColor=#82b366;fillColor=#d5e8d4;align=center;verticalAlign=middle;whiteSpace=wrap;rounded=0;" parent="1" vertex="1">
          <mxGeometry x="620" y="160" width="80" height="20" as="geometry" />
        </mxCell>
        <mxCell id="sqNoF_5NScqEgGkXhuoa-8" value="" style="endArrow=none;dashed=1;html=1;dashPattern=1 3;strokeWidth=2;" parent="1" edge="1">
          <mxGeometry width="50" height="50" relative="1" as="geometry">
            <mxPoint x="120" y="169.9999999999999" as="sourcePoint" />
            <mxPoint x="600" y="169.9999999999999" as="targetPoint" />
          </mxGeometry>
        </mxCell>
        <mxCell id="sqNoF_5NScqEgGkXhuoa-9" value="" style="endArrow=none;dashed=1;html=1;dashPattern=1 3;strokeWidth=2;" parent="1" edge="1">
          <mxGeometry width="50" height="50" relative="1" as="geometry">
            <mxPoint x="120" y="249.5" as="sourcePoint" />
            <mxPoint x="600" y="250" as="targetPoint" />
          </mxGeometry>
        </mxCell>
        <mxCell id="sqNoF_5NScqEgGkXhuoa-10" value="" style="endArrow=none;html=1;" parent="1" edge="1">
          <mxGeometry width="50" height="50" relative="1" as="geometry">
            <mxPoint x="120" y="89.99999999999989" as="sourcePoint" />
            <mxPoint x="600" y="89.99999999999989" as="targetPoint" />
          </mxGeometry>
        </mxCell>
        <mxCell id="sqNoF_5NScqEgGkXhuoa-11" value="" style="endArrow=none;html=1;" parent="1" edge="1">
          <mxGeometry width="50" height="50" relative="1" as="geometry">
            <mxPoint x="120" y="329.65999999999997" as="sourcePoint" />
            <mxPoint x="600" y="330" as="targetPoint" />
          </mxGeometry>
        </mxCell>
        <mxCell id="sqNoF_5NScqEgGkXhuoa-13" value="" style="rounded=0;whiteSpace=wrap;html=1;fillColor=#dae8fc;strokeColor=#6c8ebf;rotation=90;" parent="1" vertex="1">
          <mxGeometry x="389" y="160" width="50" height="100" as="geometry" />
        </mxCell>
        <mxCell id="sqNoF_5NScqEgGkXhuoa-14" value="" style="endArrow=classic;html=1;" parent="1" edge="1">
          <mxGeometry width="50" height="50" relative="1" as="geometry">
            <mxPoint x="384" y="210" as="sourcePoint" />
            <mxPoint x="444" y="210" as="targetPoint" />
            <Array as="points">
              <mxPoint x="399" y="210" />
            </Array>
          </mxGeometry>
        </mxCell>
        <mxCell id="sqNoF_5NScqEgGkXhuoa-15" value="" style="rounded=0;whiteSpace=wrap;html=1;fillColor=#dae8fc;strokeColor=#6c8ebf;rotation=90;" parent="1" vertex="1">
          <mxGeometry x="505" y="160" width="50" height="100" as="geometry" />
        </mxCell>
        <mxCell id="sqNoF_5NScqEgGkXhuoa-16" value="" style="endArrow=classic;html=1;" parent="1" edge="1">
          <mxGeometry width="50" height="50" relative="1" as="geometry">
            <mxPoint x="500" y="210" as="sourcePoint" />
            <mxPoint x="560" y="210" as="targetPoint" />
            <Array as="points">
              <mxPoint x="515" y="210" />
            </Array>
          </mxGeometry>
        </mxCell>
        <mxCell id="sqNoF_5NScqEgGkXhuoa-17" value="" style="rounded=0;whiteSpace=wrap;html=1;fillColor=#dae8fc;strokeColor=#6c8ebf;rotation=90;" parent="1" vertex="1">
          <mxGeometry x="275" y="240" width="50" height="100" as="geometry" />
        </mxCell>
        <mxCell id="sqNoF_5NScqEgGkXhuoa-18" value="" style="endArrow=classic;html=1;" parent="1" edge="1">
          <mxGeometry width="50" height="50" relative="1" as="geometry">
            <mxPoint x="275" y="289.5" as="sourcePoint" />
            <mxPoint x="325" y="290" as="targetPoint" />
          </mxGeometry>
        </mxCell>
        <mxCell id="sqNoF_5NScqEgGkXhuoa-19" value="" style="rounded=0;whiteSpace=wrap;html=1;fillColor=#dae8fc;strokeColor=#6c8ebf;rotation=90;" parent="1" vertex="1">
          <mxGeometry x="389" y="240" width="50" height="100" as="geometry" />
        </mxCell>
        <mxCell id="sqNoF_5NScqEgGkXhuoa-20" value="" style="endArrow=classic;html=1;" parent="1" edge="1">
          <mxGeometry width="50" height="50" relative="1" as="geometry">
            <mxPoint x="389" y="289.5" as="sourcePoint" />
            <mxPoint x="439" y="290" as="targetPoint" />
          </mxGeometry>
        </mxCell>
        <mxCell id="sqNoF_5NScqEgGkXhuoa-21" value="" style="rounded=0;whiteSpace=wrap;html=1;fillColor=#dae8fc;strokeColor=#6c8ebf;rotation=90;" parent="1" vertex="1">
          <mxGeometry x="500" y="240" width="50" height="100" as="geometry" />
        </mxCell>
        <mxCell id="sqNoF_5NScqEgGkXhuoa-22" value="" style="endArrow=classic;html=1;" parent="1" edge="1">
          <mxGeometry width="50" height="50" relative="1" as="geometry">
            <mxPoint x="500" y="289.5" as="sourcePoint" />
            <mxPoint x="550" y="290" as="targetPoint" />
          </mxGeometry>
        </mxCell>
        <mxCell id="sqNoF_5NScqEgGkXhuoa-23" value="" style="endArrow=classic;html=1;" parent="1" edge="1">
          <mxGeometry width="50" height="50" relative="1" as="geometry">
            <mxPoint x="260" y="155" as="sourcePoint" />
            <mxPoint x="315" y="185" as="targetPoint" />
          </mxGeometry>
        </mxCell>
      </root>
    </mxGraphModel>
  </diagram>
</mxfile>
